<svg xmlns="http://www.w3.org/2000/svg" version="1.1" xmlns:xlink="http://www.w3.org/1999/xlink" width="16" height="16"><svg xmlns="http://www.w3.org/2000/svg" version="1.1" xmlns:xlink="http://www.w3.org/1999/xlink" width="16" height="16"><svg id="_喇뒨쏛_2" data-name="喇뒨쏛 2" xmlns="http://www.w3.org/2000/svg" viewBox="0 0 16 16">
  <defs>
    <style>
      .cls-1 {
        fill: #f78700;
      }
    </style>
  </defs>
  <g id="_喇뒨쏛_1-2" data-name="喇뒨쏛 1">
    <g>
      <path class="cls-1" d="M6.8,0h-1.16c-.22,0-.4.17-.42.39,0,0,0,0,0,0-.15,1.9-1.38,3.17-1.52,3.3-.13.13-1.39,1.36-3.28,1.51-.01,0-.02,0-.03,0C.17,5.23,0,5.41,0,5.63v1.16c0,.26.21.46.47.44,3.63-.23,6.54-3.14,6.77-6.77.02-.25-.19-.47-.44-.47Z"></path>
      <path class="cls-1" d="M15.96,2.67h.04v3.64c0,.23-.18.41-.4.42h0c-3.57.19-6.02,2.57-6.15,2.71-.21.21-2.47,2.55-2.7,5.98,0,.06,0,.12-.01.18,0,.23-.19.4-.42.4h-3.64v-.05s-.02.05-.05.05h-1.18C.64,16,0,15.36,0,14.57v-1.18s.02-.05.05-.05H0v-3.64c0-.23.18-.41.4-.42h.02c3.56-.19,6-2.56,6.14-2.71.17-.17,2.55-2.61,2.71-6.15h0c0-.23.2-.41.42-.41h3.64v.04s.02-.04.04-.04h1.2c.79,0,1.43.64,1.43,1.43v1.19s-.02.04-.04.04Z"></path>
      <path class="cls-1" d="M9.2,16h1.16c.22,0,.4-.17.42-.39,0-.03,0-.07,0-.1.18-1.85,1.36-3.06,1.51-3.21.11-.11,1.36-1.32,3.26-1.51.02,0,.03,0,.05,0,.22-.02.38-.2.38-.42v-1.17c0-.26-.21-.46-.47-.44-3.63.23-6.54,3.14-6.77,6.77-.02.25.19.47.44.47Z"></path>
      <circle class="cls-1" cx="1.5" cy="1.5" r="1.5"></circle>
      <circle class="cls-1" cx="14.5" cy="14.5" r="1.5"></circle>
    </g>
  </g>
</svg></svg><style>@media (prefers-color-scheme: light) { :root { filter: none; } }
@media (prefers-color-scheme: dark) { :root { filter: none; } }
</style></svg>